<?xml version="1.0" encoding="UTF-8"?>
<svg id="Calque_1" data-name="Calque 1" xmlns="http://www.w3.org/2000/svg" viewBox="0 0 985.36 350.1"><defs><style>.cls-1{fill:#fff;}.cls-2{fill:#a0484e;}.cls-3{fill:#f6f6f6;}.cls-4{fill:#acca63;}.cls-5{fill:none;}</style></defs><title>logo ibep</title><path class="cls-1" d="M84.76.93C84.43,15,84.73,29,83.54,43c-.8,9.43,0,18.83-.85,28.17-2,21.16-.76,42.34-.78,63.5,0,14.08,3.46,27.38,11.71,39.38,10.23,14.85,36.93,23.82,53.21,11.1,6.95-5.43,10.56-13,12.81-21.27,3.68-13.48,3.75-27.35,2.85-41.08-.64-9.9-1.65-19.88-6.63-29.11-6.4-11.89-16.69-17.8-29.05-21-10.49-2.71-20.34-.53-29.47,5-1.47.88-3.11,1-3-.24.09-2-3.57-3.8-.22-5.87,11.65-7.19,24.57-9.39,37.75-7.6a64.5,64.5,0,0,1,39.32,20.68c8.94,9.65,13.66,21.21,15.68,34.28,2.62,16.91-.33,32.82-7.52,47.88C173,180,163,190,148.91,195c-17,6-34.48,6.34-51.32-.08-17.47-6.68-28.1-20.21-33.84-37.85-4.4-13.52-4.5-27.14-3.17-41.13,1.06-11.06,2.1-22.13,3.33-33.16,1.12-10,2.42-20,3.57-30,1.12-9.71,2.58-19.4,3.37-29.16C71.47,16,72.77,8.48,73.77.93Z" transform="translate(-0.75 0.56)"/><path class="cls-1" d="M.84,152.32c1.74-.75,1-2.3,1-3.46C1.73,133.1,4,117.55,5.71,101.94,7.78,83,11.24,64.35,13.83,45.53c1-7.5,5.24-9.7,12.8-6.72,2.13.84,1.24,2.62,1.11,3.81-2.07,18.49-.47,37-.89,55.54-.22,9.78,0,19.58,0,29.37A253.58,253.58,0,0,0,30,168.65c1.68,10.45,9,15.75,20.7,18.51a34.89,34.89,0,0,0,6.25,1c6.84.35,8.27,2.31,6.9,9.23-.32,1.61-1.08,1.85-2.34,1.76-17.73-1.29-35.08-4-48.77-16.68-6.89-6.37-11-14.44-10.89-24.17,0-.81.08-1.69-1-2Z" transform="translate(-0.75 0.56)"/><path class="cls-2" d="M21.82.93c1.8,1.66,4.46,1.19,6.41,2.83C34,8.58,36.1,19,32,24c-5.72,7.15-13.29,9.07-21.49,3.68-8.48-5.57-7.43-20,1.67-24.55,1.52-.77,3.07-1.49,4.61-2.23Z" transform="translate(-0.75 0.56)"/><path class="cls-1" d="M986,317.66v27.89h-9.47c-10,0-9.94,0-9.58-9.95.09-2.37.7-3.14,3.09-3.05,4.32.18,8.64.06,13,.05,1,0,2,0,2-1.49s-1-1.48-2-1.49h-8c-8.25,0-8.11,0-8.09-8.47,0-2.83.82-3.66,3.62-3.55C975.68,317.82,980.83,317.66,986,317.66Z" transform="translate(-0.75 0.56)"/><path class="cls-1" d="M322.56,349.54c-11.11-5.47-15.14-18.85-8.66-28.75a15.41,15.41,0,0,1,28.55,6.56c.54,7.86.36,15.67-7.66,20.59-1.07.66-2.84-.22-3.24,1.6Zm-7-17.89c-.51,8.91,5.25,13.68,9.79,13.91,7.16.35,10.19-2,12.65-9.9,1.79-5.76-.8-13.62-5.23-16.36-3.31-2-6.94-2.61-10.24-.92C317.3,321.06,315.26,325.85,315.56,331.65Z" transform="translate(-0.75 0.56)"/><path class="cls-1" d="M626.3,349.54c-12.24-4.69-13.51-16.59-10.41-25.89,2.48-7.47,10.12-11.39,18.05-10,6.16,1.12,11.78,8.47,12.38,15.66.77,9.23-2.9,15.87-11,20.19Zm-7-18.05c0,9.79,4.35,14.65,12.56,14.06,4.85-.35,8.65-4.27,10.12-11.4s-3.37-17.65-12.88-16.56C623.07,318.28,619.3,323.21,619.3,331.49Z" transform="translate(-0.75 0.56)"/><path class="cls-1" d="M48.8,349.54c-3.4-2.72-8.3-4.25-8-9.9.07-1.12-.82-2.8,1.4-3.05,1.84-.2,2.46.37,2.67,2.38a7.07,7.07,0,0,0,6.29,6.49c4,.59,7.93.25,10.65-3.47,2-2.8.68-5.94-3.5-7.34-2.72-.91-5.64-1.25-8.38-2.11-3.74-1.17-7.58-2.57-8.12-7.21-.72-6.16.78-8.39,6.68-10.87,5.71-2.4,13.41,0,16.23,5.11.83,1.52,2.18,3.62.36,4.81-2.08,1.35-3.3-.64-4.31-2.42-2.47-4.34-7.25-5.56-11.71-3.42a5.38,5.38,0,0,0-3.2,5.48c.07,2.14,1.6,3.24,3.88,3.7,3.43.71,6.74,2,10.15,2.84,4.59,1.13,6.83,3.81,6.92,8.62s-1.71,8.16-6.63,9.34c-.68.16-1.27.22-1.42,1Z" transform="translate(-0.75 0.56)"/><path class="cls-1" d="M533.38,349.54a20.62,20.62,0,0,1-7.75-30.3c3.43-5,9-6.19,14.84-5.53,5,.57,8.14,3.73,10.37,7.94.69,1.3,1.26,3-.36,3.82-1.19.58-2.65.46-3.47-1.52-2.09-5-6.13-7.11-11.48-6.23-4.34.72-8.43,5.64-9.07,11.28-.85,7.42,2.56,16.7,11.3,16.61,5.08-.05,8.58-2.73,9.32-7.05.67-3.9,2.53-2.89,4.69-2.84-.24,6.62-4,10.8-9.4,13.82Z" transform="translate(-0.75 0.56)"/><path class="cls-1" d="M139.72,349.54c-6.55-2.91-9-8.26-9-15.05,0-5.31-.09-10.62.06-15.93,0-1.45-1.3-4,2.06-3.87s1.74,2.68,1.81,4.12c.35,6.55-.39,13.12,1,19.65,1,4.78,3.58,7.11,8.8,7.09,4.79,0,7.31-2.44,8.3-7.09,1.44-6.69.69-13.44,1-20.15.06-1.35-1.12-3.52,1.83-3.65s2.15,2,2.08,3.4c-.33,6.91.55,13.8-.52,20.74-.84,5.42-4,8.43-8.43,10.74Z" transform="translate(-0.75 0.56)"/><path class="cls-1" d="M500.4,349.54c-6.45-3.21-8.58-8.5-8.07-15.48.4-5.43.06-10.92.1-16.38,0-1.37-.55-3.05,2-3.05s2,1.68,2,3.05c0,6.29-.22,12.59.08,18.87.3,6.11,3.79,9.47,9,9.1,6-.43,8.8-2.82,8.92-9.1s0-12.58,0-18.87c0-1.37-.55-3.05,2-3.05s2,1.68,2,3.05c0,6.95,0,13.9,0,20.86,0,5.6-3.75,8.47-8,11Z" transform="translate(-0.75 0.56)"/><path class="cls-1" d="M986,317.66c-5.15,0-10.3.16-15.44-.06-2.8-.11-3.61.72-3.62,3.55,0,8.47-.16,8.46,8.09,8.47h8c1,0,2,0,2,1.49s-1,1.48-2,1.49c-4.32,0-8.64.13-13-.05-2.39-.09-3,.68-3.09,3.05-.36,10-.45,9.95,9.58,9.95H986v3c-6.65,0-13.3-.1-20,0-2.39.05-3.11-.66-3.08-3.06q.19-13.92,0-27.85c0-2.39.69-3.11,3.08-3.06,6.65.15,13.3.05,20,.05Z" transform="translate(-0.75 0.56)"/><path class="cls-3" d="M.84,314.67c2.49-.22,4.22-.19,4.1,3.4q-.48,13.53,0,27.08c.12,3.59-1.61,3.62-4.1,3.39Z" transform="translate(-0.75 0.56)"/><path class="cls-4" d="M781.07,68c1.15,38.86-7.37,74.23-20.59,108.79-4.43,11.59-9.05,23.09-14.4,34.25-4.52,9.43-9.89,18.51-16.93,26.32-7.52,8.35-16.28,11.55-24.37,6.26-6.68-4.37-10.23-11-10.53-19-.71-19,2.09-37.6,4.58-56.36,2.61-19.64,8.74-38.5,11.16-58,1.42-11.48.87-23.1-8-32.38-5-5.15-11.37-7.41-18.05-8A103.79,103.79,0,0,0,653.41,72c-21.6,4.51-42.42,11.85-63.85,17-11.19,2.67-22.42,3.52-33.76,1.48-3.08-.55-6.26-1.61-7.32-5-1-3.25.84-5.54,3.18-7.71,9.93-9.23,22.05-14.78,34.25-20C620,43.22,656.54,36.88,692.22,27.67c22.49-5.8,45.38-9.5,68.18-13.67,2.88-.52,5.89-.22,8.81-1.06,4.58-1.32,6.11,1.26,7,5.38C779.85,35.25,782.08,52.29,781.07,68Z" transform="translate(-0.75 0.56)"/><path class="cls-2" d="M662.31,138c-.12,27.29-6.09,51.88-15.88,75.71-4.19,10.21-8.38,20.34-15.07,29.26a30.47,30.47,0,0,1-6.13,6.42c-8.81,6.49-17.85-.16-18.75-9.26-1.18-12,.79-23.88,2.12-35.81,1.72-15.51,8-30.22,7.7-46-.24-12.14-7.65-18.28-18.65-18.85-11.47-.61-22.16,3.08-33.06,5.83-13.83,3.48-27.23,9.36-42,8.1a15.8,15.8,0,0,1-4.78-.77c-5.23-2.05-6-4.24-2.1-8,9.08-8.59,20.42-13.38,32-17A766.86,766.86,0,0,1,624,108.35c10.37-2.1,20.79-3.68,31.21-5.41,2.21-.37,2.66.42,3,2,1,4.91,2.65,9.79,2.86,14.74C661.39,126.26,663.22,132.74,662.31,138Z" transform="translate(-0.75 0.56)"/><path class="cls-1" d="M439.45,131.2c.29-12.86-.83-25-6.9-36.38C426.74,84,418,77.94,405.66,76.55s-23.39.65-32.2,9.73c-6.25,6.43-9.44,14.66-10.87,23.38a144.22,144.22,0,0,0-2,34.39c1.78,23-.26,46,1.13,69,1,16.23.14,32.41.85,48.59.15,3.58-1,4.76-4.42,4.28a26,26,0,0,0-5,0c-1.78.1-2.5-.38-2.73-2.41-1.47-13.3-2.74-26.62-4-40-1.43-14.8-2.93-29.59-4-44.43-.72-9.65-1.31-19.31-2.06-28.94a184.67,184.67,0,0,1-.68-24.19c.59-10.83,1.92-21.63,6.89-31.58,7.85-15.73,21.16-24,38-26.59,12.15-1.87,24.32-2.25,36.52,1.57,14.79,4.64,25.16,14.36,33.13,26.8a69.62,69.62,0,0,1,11.11,41.15c-.79,17.73-5.81,34.38-18.29,47.5a47.69,47.69,0,0,1-29,14.52c-13.76,1.85-26.42-1.73-39.3-5.15-2.77-.74-3.23-2.44-2-4.27,1-1.52.4-5.36,4.79-3.41,9.21,4.09,19,6.6,29.05,4,12.88-3.38,19.34-13.46,23.95-25C438.93,154.31,439.68,142.64,439.45,131.2Z" transform="translate(-0.75 0.56)"/><path class="cls-1" d="M200.53,138.15c.22-22.77,5.37-41.25,20.69-55.47,11.76-10.91,25.9-16.76,42.12-18.13,13.18-1.12,25.49.66,37.1,7.06C313.5,78.8,320.76,90.38,325.37,104c.66,2-.53,2.78-2.23,3.69q-22.06,11.79-44,23.86-17.46,9.62-34.77,19.49c-2.41,1.37-3.72,1.4-5.2-1.48-4.88-9.48-4.91-9.24,3.71-15.24,18.63-13,37.14-26.15,55.66-39.3.95-.68,2.38-1.28.81-3.34-5.87-7.73-12.85-13.9-22.24-16.79-13.9-4.28-26.41-.51-38.25,7C228,88.71,225.4,99.27,224.53,111.15c-1.22,16.43,1.3,32.41,3.92,48.48.6,3.65.73,7.5,1.5,11.13,2.06,9.69,8.19,15.31,18,17.57,10.24,2.38,20.23,2.91,30.21-1,13.23-5.22,19.6-16,23.37-28.73a76.67,76.67,0,0,0,3-22.17c0-2.44.79-3.1,3.13-3,5.66.15,11.33.18,17,0,2.6-.09,3.29,1,2.91,3.19-3.05,18.22-6.32,36.44-21.9,49-8.76,7.06-19.2,10.58-30.16,12.58-14.28,2.59-27.86.06-41-5.58-17-7.31-27.46-20.1-31.78-38C201.17,148.37,200.18,142.08,200.53,138.15Z" transform="translate(-0.75 0.56)"/><path class="cls-1" d="M98.75,246.79V233.35c0-5.17,2.49-7.22,7.1-5,1.65.79,2.5.92,3.87.21,5.75-3,11.08-1.74,15.92,2,1.56,1.2,2.26,1.68,4,.17,5.39-4.65,11.6-5,17.66-1.68,5.47,3,8.71,7.64,8.44,14.36-.26,6.46-.25,12.94,0,19.4.15,3.47-1.81,3.15-4,3.12s-4.26.49-4.1-3.06c.26-6.12.11-12.27.06-18.4,0-5.12-4.28-9.66-8.65-9.41-3.52.2-7.32,5.15-7.33,9.57,0,6-.25,12,.09,17.9.22,3.75-1.86,3.54-4.27,3.37-2.22-.15-5.13,1.16-4.89-3.25.33-6,.08-11.94.08-17.91s-2.52-9.41-7.17-9.67c-4.16-.24-8.7,4.79-8.79,10-.1,5.8-.27,11.62.06,17.4.21,3.6-1.62,3.45-4.17,3.55-2.9.13-4.18-.46-4-3.74C99,257.08,98.75,251.93,98.75,246.79Z" transform="translate(-0.75 0.56)"/><path class="cls-1" d="M198.67,248.92v10.93c0,5.73-3.33,8.27-8.35,5.63a3.68,3.68,0,0,0-3.44-.28c-7.36,2.23-14.11.9-19.61-4.36-5.91-5.64-7.24-14.46-3.94-22s9-11.2,17-11.78a19.54,19.54,0,0,1,5.92.28c12.41,3,12.4,3,12.4,15.63Zm-9-2.2c-.22-5,1.66-10.47-5.65-11.64a12.7,12.7,0,0,0-8.82,2.11c-4.86,2.93-6.84,10-4.25,14.52a12.18,12.18,0,0,0,15.31,5.34C191.87,254.62,188.72,249.92,189.7,246.72Z" transform="translate(-0.75 0.56)"/><path class="cls-1" d="M273.72,227c11.24,0,20,8.54,19.85,19.58-.12,12.1-8.25,19.82-19.84,19.87-10.71,0-19.85-6.14-20.11-20.1A19.47,19.47,0,0,1,273.72,227Zm11.87,19.38c0-5.55-6.27-11.45-12.06-11.41s-12,6.19-11.9,11.59c.14,5.06,6.81,12,11.76,12.24C278.53,259.07,285.62,251.85,285.59,246.4Z" transform="translate(-0.75 0.56)"/><path class="cls-1" d="M47.77,227c10.95-.51,20.33,9,20.07,20-.28,11.76-8.5,19.31-19.94,19.45-11.06.13-19.43-7.05-19.95-19.4S37.25,226.78,47.77,227Zm-.08,8c-5.28.06-12,6.6-11.86,11.57.13,5.26,7.33,12.51,12.19,12.26,5.88-.3,11.95-6.6,11.76-12.22A12.51,12.51,0,0,0,47.69,235Z" transform="translate(-0.75 0.56)"/><path class="cls-1" d="M299.58,246.62c0-5,.12-10-.05-14.93-.09-2.61.43-4.34,3.43-3.64,4.87,1.14,9.49-.57,14.2-1.06,7.46-.77,17.54,7.37,16.53,16.19-.73,6.39-.39,12.94-.05,19.4.21,3.89-2.09,3.15-4.37,3.33-2.61.2-3.92-.3-3.79-3.4.25-6,.11-11.94.06-17.91,0-5.46-4-9.63-9-9.6s-8,3.54-8,9.62-.26,12,.09,17.92c.25,4.35-2.56,3.23-4.83,3.32s-4.6.55-4.34-3.31C299.85,257.26,299.58,251.93,299.58,246.62Z" transform="translate(-0.75 0.56)"/><path class="cls-2" d="M3.83,240.34c0-6.46.3-12.93-.06-19.37-.64-11.57,12.53-18.05,23.44-13.66,1.06.43,2.17,1.27,1.16,2.65-1.28,1.75-1.58,5.36-4.44,4.56-9.4-2.67-12.87,3.18-12.17,11.67.17,2.06.59,3,2.82,2.86,1.82-.16,3.69.19,5.48-.08,4-.61,5.06,1,4.87,4.87-.13,2.78-1.14,3.15-3.54,3.2-9.56.2-9.56.28-9.56,9.92,0,5.3-.2,10.61.06,15.9.18,3.57-2,3-4.14,3-2.3.08-4.11.2-4-3.19C4,255.26,3.84,247.8,3.83,240.34Z" transform="translate(-0.75 0.56)"/><path class="cls-1" d="M224.44,265.78c-10.55,1.46-18.48-6.94-17.87-16.92.44-7.1.06-14.25.11-21.38,0-1.46-.71-3.92,2.08-3.33,2,.42,5.4-2.29,5.84,2.06.22,2.09,1.51,1.79,2.78,1.8a64.35,64.35,0,0,0,8,0c3.54-.4,4.44.87,4.42,4.34,0,3.23-1.1,4.15-4,3.69a2,2,0,0,0-.49,0c-3.49.54-9.36-1.69-10.08,1.07-1.56,6-1.58,12.86,2,18.56,2.09,3.36,6.33,2.84,9.57,2.07,5-1.2,5.11,3.37,6.1,5.44,1.12,2.31-2.68,1.63-4.13,2.5C227.46,266.36,225.46,265.78,224.44,265.78Z" transform="translate(-0.75 0.56)"/><path class="cls-1" d="M784.16,323c0,8.24,0,15.2,0,22.16,0,1.4.93,3.54-2,3.44s-1.86-2.26-1.87-3.6c-.09-8.78-.11-17.57,0-26.35,0-1.43-1.35-3.77,2-4,2.71-.19,4.07.66,5,3.25,2.77,7.82,5.79,15.55,9.18,24.59,3.22-8.43,6-15.68,8.75-22.95a24.41,24.41,0,0,1,1.38-3.57c1-1.81,2.9-1.33,4.49-1.17,1.81.17,1.1,1.76,1.11,2.74.06,9.44,0,18.89,0,28.33,0,1.25.38,2.65-1.78,2.75-2.36.11-2.22-1.29-2.21-2.84,0-6.8,0-13.59-.63-20.61-2.46,6.37-4.79,12.79-7.45,19.07-.67,1.58.14,4.31-3.25,4.44s-3.51-2.67-4.24-4.42c-2.39-5.75-4.31-11.7-6.45-17.56A39.11,39.11,0,0,0,784.16,323Z" transform="translate(-0.75 0.56)"/><path class="cls-1" d="M285.59,314.68c7.33,0,14.65,0,22,0,1.11,0,3-.8,2.95,1.46s-1.85,1.4-3,1.46c-8,.45-8,.43-8,8.56,0,6.31,0,12.62,0,18.93,0,1.41.93,3.54-2.05,3.44s-1.84-2.27-1.86-3.62c-.1-7.8-.17-15.6,0-23.4.07-2.87-.42-4.08-3.72-4-7.82.28-15.65.23-23.47,0-3-.07-4,.56-3.94,3.77.12,8.25-.07,8.25,8.35,8.26,2.5,0,5,0,7.49,0,.93,0,2.06-.23,2.21,1.25.18,1.81-1.06,1.72-2.25,1.72-4.16,0-8.33.17-12.48-.06-2.73-.15-3.25.86-3.29,3.38-.16,9.63-.26,9.63,9.44,9.63,2.83,0,5.66,0,8.49,0,1,0,2-.1,2.11,1.38s-.8,1.6-1.89,1.6c-6.66,0-13.32-.05-20,0-1.9,0-2.12-.94-2.11-2.46,0-9.63.09-19.26,0-28.88,0-2.47,1.17-2.59,3.05-2.57C270.94,314.71,278.26,314.68,285.59,314.68Z" transform="translate(-0.75 0.56)"/><path class="cls-1" d="M851.1,322.69c0,8.23.08,15-.06,21.7,0,1.6,1.34,4.12-2.3,4.22-4,.1-2.56-2.69-2.58-4.43q-.18-12.69,0-25.37c0-1.36-1.31-3.51,1.26-4.09a4.9,4.9,0,0,1,5.52,2.37c4.74,7.27,9.45,14.57,14.2,21.84a20.38,20.38,0,0,0,1.94,2.05c0-8.25,0-15.6,0-23,0-1.45-.82-3.5,2.12-3.39,2.56.1,1.82,1.89,1.82,3.18.06,9,.08,17.91,0,26.86,0,1.26,1.08,3.3-1.06,3.73-1.83.38-3.55.41-5-1.89C862.21,338.88,857,331.49,851.1,322.69Z" transform="translate(-0.75 0.56)"/><path class="cls-1" d="M221.77,330.08c5.3,5.61,6.49,10.36,3.4,14.39a9.52,9.52,0,0,1-9,4.11c-5.07-.49-11.89,2.13-14.77-1.06-2.51-2.78-.72-9.45-.77-14.4,0-5.15.11-10.3-.06-15.44-.08-2.41.7-3.15,3.09-3.05,4.32.17,8.66.15,13,0,3.41-.11,6.41.76,7.84,3.91,1.62,3.53,1.94,7.24-1.51,10.21A17,17,0,0,0,221.77,330.08Zm-11.1,2.53c-1.36,1.4-5.09-2-5.77,1.4s-1.75,8.37.61,10.94c1.52,1.65,6.25.45,9.54.39.91,0,1.81-.68,2.73-.75,3.13-.25,3.89-2.81,4.76-5s-.92-3.59-2.37-5C217.6,332.11,214.42,332.63,210.67,332.61Zm1.1-4c1.49,0,3-.08,4.46,0,2.9.18,3.87-1.88,4.88-4s-.56-3.33-1.58-4.58c-1.6-2-11.95-3.56-14-2.33a1.66,1.66,0,0,0-.77,1.1c-.05,3-.78,6.22.22,8.8.88,2.27,4.16.49,6.32.95A2,2,0,0,0,211.77,328.62Z" transform="translate(-0.75 0.56)"/><path class="cls-1" d="M909.05,322.29c0,7.46.07,14.92-.06,22.38,0,1.46,1.28,4.05-2.07,3.85-3.19-.19-1.78-2.68-1.8-4.12q-.21-12.7,0-25.39c0-1.42-1.24-3.56,1.08-4.24,2.49-.72,4.4.37,5.83,2.58,3.94,6.09,8,12.11,12,18.15l4,6.07c0-8.6-.08-15.75.07-22.9,0-1.42-1.4-4,1.94-4s1.9,2.58,1.92,4q.21,12.93,0,25.88c0,1.31,1.37,3.48-1.43,4a4.71,4.71,0,0,1-5.39-2.59c-3.7-7.38-9.19-13.61-13.2-20.78C911.32,324.07,909.9,323.58,909.05,322.29Z" transform="translate(-0.75 0.56)"/><path class="cls-1" d="M14.82,322.36c0,8.32,0,15.75,0,23.17,0,1.36.55,3.05-2,3.05s-2-1.69-2-3.05c0-9.13-.06-18.25,0-27.38,0-1.2-1.05-3.23,1.44-3.43,1.56-.13,2.77-.17,4,1.74,5.05,8,10.53,15.76,16.52,24.6,0-8.06-.08-15.19.07-22.32,0-1.42-1.43-4,1.87-4.05s2,2.49,2,3.94c.12,8.79.1,17.58,0,26.38,0,1.2,1,3.21-1.38,3.49-1.63.19-3.33.32-4.44-1.39C25.77,339.16,20.59,331.22,14.82,322.36Z" transform="translate(-0.75 0.56)"/><path class="cls-1" d="M368.52,340.48c0-8.57,0-15.65,0-22.74,0-1.33-.63-3.05,1.92-3.11s2,1.59,2,3c0,9.28.05,18.56,0,27.85,0,1.08.9,2.94-1.34,3-1.49.05-2.77.36-4-1.65-5-8.07-10.46-15.84-16.58-24.95,0,7.58.22,14-.12,20.42-.11,2,2,5.87-1.65,6-4.27.15-2-4-2.1-6-.31-7.94-.18-15.9-.07-23.86,0-1.24-1-3.27,1.17-3.64,1.86-.32,3.49-.3,4.92,2C357.41,324.42,362.63,331.76,368.52,340.48Z" transform="translate(-0.75 0.56)"/><path class="cls-1" d="M654.27,322.28c0,8.31,0,15.67,0,23,0,1.26.82,3.1-1.75,3.25-2.87.15-2.19-1.82-2.2-3.33,0-8.95-.07-17.9,0-26.85,0-1.23-1.12-3.23,1.2-3.64a3.7,3.7,0,0,1,4.38,1.89c5.06,7.94,10.49,15.65,16.35,24.29,0-8.3,0-15.67,0-23,0-1.26-.83-3.1,1.75-3.24,2.87-.16,2.19,1.81,2.2,3.32,0,8.95.06,17.91,0,26.86,0,1.22,1.12,3.22-1.2,3.64a3.73,3.73,0,0,1-4.38-1.89C665.56,338.63,660.13,330.92,654.27,322.28Z" transform="translate(-0.75 0.56)"/><path class="cls-1" d="M74.77,247c0-4.64.45-9.33-.11-13.9-.68-5.47,2.56-6.15,6-4.85,2.63,1,4.52.25,6.59-.4,1.68-.53,3.88-1.9,4.24.48.33,2.14,2.16,5.68-1.45,6.86-6.44,2.1-7.7,6.66-7.34,12.61.29,4.79-.17,9.63.13,14.41.21,3.28-1.08,3.87-4,3.74-2.54-.11-4.43.06-4.18-3.54C75,257.29,74.77,252.13,74.77,247Z" transform="translate(-0.75 0.56)"/><path class="cls-1" d="M750.19,331.22c0-.34,0-.67,0-1,.29-5.08-.63-10.19.53-15.24,5.95-.1,11.92-.4,17.87-.21a7,7,0,0,1,6.37,4.74c1.27,4,1.16,8.24-2,11.57-.93,1-2,1.18-.4,2.49,4.54,3.69,1.57,9.31,3.27,13.85.5,1.35-2.34,1.35-3.8.47-1-.6-.83-1.68-.92-2.67-1-10.84-3.89-13-14.81-11.68-1.79.22-2.23.82-2.18,2.42a74.39,74.39,0,0,1-.06,8.45c-.13,1.45,1.46,4-1.81,4.12s-2-2.43-2-3.88C750.08,340.18,750.19,335.69,750.19,331.22Zm4-8.29c.1,4.32-1.44,8.35,5.16,7.84,8.38-.65,11.71-2,11.83-6.87.12-4.68-2.52-6.08-10.55-6.3C756.11,317.48,752.31,317.5,754.18,322.93Z" transform="translate(-0.75 0.56)"/><path class="cls-1" d="M230.64,331.23c0-3.65.39-7.34-.1-10.92-.68-5.06,1.39-6.25,6-5.71a53.44,53.44,0,0,0,10,0,8.84,8.84,0,0,1,9,4.81c2.24,4.15.94,8.28-2,11.53-1.25,1.39-2,1.37-.06,2.69s2.06,3.69,2.22,5.93-.61,4.25.64,6.29c.58,1,.87,2.37-.9,2.58-1,.11-2.07.46-2.89-1.06-.93-1.76-.84-3.46-.88-5.24-.13-5.58-2.91-8.43-8.37-8.56-8.62-.21-8.43-.2-8.75,8.36-.08,2.12,2.28,6.23-1.77,6.32s-1.73-4-2-6.14A96.74,96.74,0,0,1,230.64,331.23Zm4-8.19c0,7.57,0,7.35,6.17,7.63,8,.35,11.43-3.18,11.47-6.72,0-4.21-3.92-6.07-11.36-6.36C236.18,317.4,232.9,317.91,234.63,323Z" transform="translate(-0.75 0.56)"/><path class="cls-1" d="M461.44,331.46c0-4.48.13-9-.05-13.44-.1-2.49.47-3.69,3.24-3.37,5.36.6,10.92-1.2,16.14,1.16a11.14,11.14,0,0,1,6.75,7.76,32.42,32.42,0,0,1-.28,17.32,10.11,10.11,0,0,1-8.05,7.13c-5.34.88-10.9.48-16.36.44-2.14,0-1.33-1.94-1.36-3.07C461.39,340.75,461.44,336.1,461.44,331.46Zm4-.18c0,3.8,0,7.6,0,11.39,0,1-.57,2.24,1.08,2.87,3.82,1.43,14.08-2,16-5.54,3.2-6.07,3.28-12.4-.52-17.95-3.27-4.78-9.13-4.06-14.27-4.41-2.23-.15-2.33,1.08-2.3,2.74C465.48,324,465.43,327.65,465.43,331.28Z" transform="translate(-0.75 0.56)"/><path class="cls-1" d="M391.5,331.59c0-4.64.13-9.29-.05-13.93-.1-2.43.73-3.19,3.1-3a46.23,46.23,0,0,0,8,0c13.28-1.4,17.28,11.46,15.62,20.41C416,346.58,411,349.11,400,348.62c-8.5-.39-8.51-.08-8.51-8.57Zm8.18,14c4.92-.91,10.8-.58,12.89-6.66,4-11.61.95-21.25-14.16-21.32-2.54,0-3,.91-3,3.16.12,6.95.22,13.92,0,20.87C395.3,344.94,396.27,346.25,399.68,345.58Z" transform="translate(-0.75 0.56)"/><path class="cls-1" d="M582.31,348c-5,2.55-5.69-1.8-6.3-4.39-1.07-4.49-3.52-5.74-7.66-5a2.41,2.41,0,0,1-1,0c-5.63-1.4-8.38,1.48-9.81,6.45-.27.91,0,1.94-.88,2.74a3.24,3.24,0,0,1-3.68.54c-1.09-.47-.62-1.65-.25-2.59,3.87-9.84,7.87-19.63,11.52-29.54.86-2.32,2.31-1.2,3.53-1.47,1.81-.39,2.19.59,2.81,2.29C574.32,327.38,578.37,337.65,582.31,348Zm-9.74-13.66c-2.08-4.73-2.9-9.46-5.77-13.79-.57,2-.93,3.72-1.51,5.33C561.92,335.14,561.9,335.13,572.57,334.29Z" transform="translate(-0.75 0.56)"/><path class="cls-1" d="M844.78,348.21c-4.93,1.73-6-2-6.47-4.7-.75-4.41-2.93-5.56-6.88-4.94a5.54,5.54,0,0,1-2,0c-5.53-1.23-8.44,1.25-9.3,6.54-.57,3.49-2.68,4-5.76,3.13q6-15.66,12.09-31.3c.52-1.33,1.14-2.51,3.14-2.33s2.89.89,3.65,3C836.88,327.89,840.89,338,844.78,348.21Zm-9.9-13.72c-1.84-5.06-3.54-9.7-5.32-14.58-1.87,5-3.64,9.65-5.5,14.58Z" transform="translate(-0.75 0.56)"/><path class="cls-1" d="M247.62,247.44c0,5.13-.21,10.27.07,15.38.23,4.05-2.48,3-4.56,3s-4.66,1-4.58-3q.34-15.87,0-31.75c-.08-4,2.49-3,4.58-3s4.77-1.05,4.56,3C247.41,236.52,247.62,242,247.62,247.44Z" transform="translate(-0.75 0.56)"/><path class="cls-1" d="M878.08,331.64c0-4.64.11-9.28-.05-13.92-.08-2.34.58-3.16,3-3.1,6.14.17,12.3,0,18.44.08,1,0,2.48-.47,2.54,1.42s-1.37,1.52-2.44,1.53c-4.32,0-8.64.17-13,0-2.75-.14-3.65.62-3.66,3.5,0,8.51-.17,8.5,8.56,8.51H899c1,0,2,0,2,1.46s-.94,1.51-2,1.52c-4.32,0-8.64.12-13,0-2.35-.1-3,.61-3.12,3-.37,10-.47,10,9.57,10,2.66,0,5.31,0,8,0,1,0,1.51.4,1.51,1.46s-.52,1.47-1.49,1.47c-7,0-14,0-20.94,0-2.17,0-1.5-1.79-1.52-2.95C878,340.91,878.08,336.27,878.08,331.64Z" transform="translate(-0.75 0.56)"/><path class="cls-1" d="M694.24,331.44c0-4.3.17-8.62-.06-12.91-.16-2.89.44-4.19,3.72-3.93,4.13.32,8.3,0,12.45.08,5.9,0,8.77,2.83,8.86,8.56.13,7.5-2.56,11.07-8.69,11.33a81.16,81.16,0,0,1-9,0c-2.54-.17-3.63.52-3.38,3.24s0,5.3.06,7.94c0,1.56.16,3-2.2,2.85-2.15-.1-1.79-1.49-1.79-2.74C694.22,341,694.24,336.24,694.24,331.44Zm10.47-.83c1.7,0,3,0,4.34,0,4.2-.12,6.49-2.78,6.19-6.91-.26-3.63-2.67-4.54-5.7-5.34a23.26,23.26,0,0,0-11-.16c-.1,0-.23.26-.23.39,0,3.78-.64,7.76.36,11.27C699.2,331.72,702.87,330.21,704.71,330.61Z" transform="translate(-0.75 0.56)"/><path class="cls-1" d="M434.46,331.46c0-4.47.12-8.95,0-13.42-.09-2.45.42-3.54,3.21-3.43,5.81.22,11.63,0,17.45.11,1.21,0,3.44-1,3.27,1.57s-2.3,1.27-3.53,1.32c-4.15.15-8.31.21-12.46,0-2.86-.15-4,.38-4,3.68.11,8.32-.09,8.33,8.25,8.33,2.16,0,4.33-.13,6.48,0,1.21.1,3.39-1,3.28,1.6-.1,2.15-2,1.27-3.08,1.3-4,.11-8,.13-12,0-2-.07-2.81.42-2.95,2.69-.63,10.3-.72,10.29,9.75,10.29,2.66,0,5.32,0,8,0,1.14,0,2.44-.19,2.31,1.65-.11,1.48-1.21,1.31-2.15,1.32-6.48,0-13-.07-19.44.05-2.15,0-2.42-1-2.39-2.71C434.51,341.07,434.46,336.26,434.46,331.46Z" transform="translate(-0.75 0.56)"/><path class="cls-1" d="M723.21,330.24c.42-4.42-2.32-11.64,1-14.71,2.9-2.67,10.08-.95,15.35-.76,2.18.08,6.19-1.52,6.25,1.28.06,3.3-3.91,1-6,1.55a15.45,15.45,0,0,1-4,.06c-9.41,0-9.3,0-8.71,9.35.15,2.33,1,2.69,3,2.64,3.82-.11,7.65-.13,11.47,0,1.22.05,3.38-1.09,3.51,1.34s-2.09,1.5-3.31,1.54c-3.81.14-7.64.16-11.46,0-2.25-.09-3.1.43-3.2,2.94-.4,10.06-.51,10.05,9.5,10.05,2.66,0,5.32,0,8,0,1,0,2.47-.5,2.57,1.38s-1.31,1.56-2.4,1.57c-6.31,0-12.63-.09-18.94.06-2.38.06-2.69-1-2.65-3C723.28,340.83,723.21,336,723.21,330.24Z" transform="translate(-0.75 0.56)"/><path class="cls-1" d="M589.33,333.14c0-1.66,0-3.31,0-5-.05-3.3,1-7.34-.53-9.68s-5.85-.47-8.93-.83c-1-.12-2.48.42-2.51-1.47s1.41-1.49,2.47-1.5q11,0,21.94,0c1,0,2.48-.48,2.54,1.42s-1.37,1.42-2.44,1.54c-2.75.31-6.61-1.32-8,.76s-.52,5.73-.54,8.68c0,6.13,0,12.27,0,18.4,0,1.34.6,3.05-1.94,3.08s-2-1.62-2-3C589.31,341.43,589.33,337.28,589.33,333.14Z" transform="translate(-0.75 0.56)"/><path class="cls-1" d="M170.69,332.65c0-1.49,0-3,0-4.47-.06-3.3,1-7.34-.53-9.68s-5.85-.47-8.92-.84c-1.05-.13-2.48.43-2.52-1.46s1.39-1.5,2.45-1.51q11,0,21.94,0c1,0,2.48-.48,2.55,1.41s-1.35,1.44-2.43,1.55c-2.75.3-6.61-1.32-8,.75s-.53,5.73-.55,8.68c0,6.13,0,12.27,0,18.4,0,1.34.61,3.05-1.93,3.09s-2-1.6-2-3C170.67,341.27,170.69,337,170.69,332.65Z" transform="translate(-0.75 0.56)"/><path class="cls-1" d="M945,332.63c0-1.82,0-3.65,0-5.47,0-3,.87-6.57-.51-8.7s-5.22-.48-8-.8c-1-.12-2.48.41-2.5-1.48s1.43-1.48,2.48-1.49q11,0,22,0c1,0,2.48-.46,2.52,1.43s-1.39,1.42-2.45,1.53c-3.08.33-7.41-1.46-8.94.8s-.55,6.36-.57,9.65c0,5.8,0,11.6,0,17.4,0,1.36.58,3.05-2,3.07s-2-1.64-2-3C945,341.25,945,336.94,945,332.63Z" transform="translate(-0.75 0.56)"/><path class="cls-1" d="M116.7,314.68h11c1,0,2,0,2,1.44s-.92,1.52-2,1.54c-.49,0-1,0-1.49,0-8.53.24-8.53.24-8.53,8.95,0,6.3,0,12.6,0,18.9,0,1.34.59,3-2,3.07s-2-1.62-2-3c0-7.95-.16-15.91.06-23.86.09-3.19-.72-4.23-4-4.19-2.27,0-6.6,1.83-6.61-1.33s4.26-1,6.58-1.43A40.51,40.51,0,0,1,116.7,314.68Z" transform="translate(-0.75 0.56)"/><path class="cls-1" d="M78.77,333.1c0-2,0-4,0-6-.05-3,.86-6.58-.52-8.7s-5.23-.46-8-.78c-1.06-.12-2.49.39-2.48-1.51s1.46-1.45,2.51-1.46q10.47,0,20.94,0c1.05,0,2.49-.44,2.5,1.47s-1.42,1.38-2.48,1.5c-2.74.32-6.6-1.33-8,.78s-.5,5.74-.51,8.7c0,6.13,0,12.26,0,18.4,0,1.36.55,3-2,3s-2-1.68-2-3.05C78.74,341.39,78.77,337.25,78.77,333.1Z" transform="translate(-0.75 0.56)"/><path class="cls-1" d="M610.31,332c0,4.48.05,8.95,0,13.43,0,1.28.76,3.08-1.81,3.2s-2.16-1.38-2.16-2.89q0-14.18,0-28.35c0-1.28-.3-2.62,1.83-2.71,2.42-.09,2.16,1.39,2.16,2.9C610.3,322.33,610.31,327.14,610.31,332Z" transform="translate(-0.75 0.56)"/><path class="cls-1" d="M100.75,331.81c0,4.64,0,9.28,0,13.92,0,1.56.15,3-2.21,2.85-2.16-.1-1.78-1.5-1.79-2.75q0-14.18,0-28.35c0-1.55-.15-3,2.21-2.85,2.15.1,1.77,1.51,1.78,2.76C100.76,322.19,100.75,327,100.75,331.81Z" transform="translate(-0.75 0.56)"/><path class="cls-3" d="M243.25,209.49c1.2,1.48,1.94,2.89,3.09,3.72,3.89,2.78,3,4.86-.05,7.91s-4.42,3-7.3,0-3-4.7.13-7.14A41.19,41.19,0,0,0,243.25,209.49Z" transform="translate(-0.75 0.56)"/><path class="cls-1" d="M427.47,320.61a2.72,2.72,0,0,1,0,1c-.73,1.64,1.82,4.88-1.95,4.93s-1.52-3.17-2-4.87a20,20,0,0,1-.07-4.45c0-1.37-.09-2.57,2-2.58s2.09,1.07,2,2.51C427.44,318.3,427.47,319.45,427.47,320.61Z" transform="translate(-0.75 0.56)"/><path class="cls-5" d="M315.56,331.65c-.3-5.8,1.74-10.59,7-13.27,3.3-1.69,6.93-1.12,10.24.92,4.43,2.74,7,10.6,5.23,16.36-2.46,7.89-5.49,10.25-12.65,9.9C320.81,345.33,315.05,340.56,315.56,331.65Z" transform="translate(-0.75 0.56)"/><path class="cls-5" d="M619.3,331.49c0-8.28,3.77-13.21,9.8-13.9,9.51-1.09,14.37,9.32,12.88,16.56s-5.27,11.05-10.12,11.4C623.65,346.14,619.3,341.28,619.3,331.49Z" transform="translate(-0.75 0.56)"/><path class="cls-5" d="M189.7,246.72c-1,3.2,2.17,7.9-3.41,10.33A12.18,12.18,0,0,1,171,251.71c-2.59-4.51-.61-11.59,4.25-14.52a12.7,12.7,0,0,1,8.82-2.11C191.36,236.25,189.48,241.73,189.7,246.72Z" transform="translate(-0.75 0.56)"/><path class="cls-5" d="M285.59,246.4c0,5.45-7.06,12.67-12.2,12.42-4.95-.24-11.62-7.18-11.76-12.24-.15-5.4,6.17-11.55,11.9-11.59S285.55,240.85,285.59,246.4Z" transform="translate(-0.75 0.56)"/><path class="cls-5" d="M47.69,235A12.51,12.51,0,0,1,59.78,246.6C60,252.22,53.9,258.52,48,258.82c-4.86.25-12.06-7-12.19-12.26C35.71,241.59,42.41,235.05,47.69,235Z" transform="translate(-0.75 0.56)"/><path class="cls-5" d="M210.67,332.61c3.75,0,6.93-.5,9.5,2,1.45,1.41,3.25,2.78,2.37,5s-1.63,4.73-4.76,5c-.92.07-1.82.74-2.73.75-3.29.06-8,1.26-9.54-.39-2.36-2.57-1.32-7.36-.61-10.94S209.31,334,210.67,332.61Z" transform="translate(-0.75 0.56)"/><path class="cls-5" d="M211.77,328.62a2,2,0,0,1-.49,0c-2.16-.46-5.44,1.32-6.32-.95-1-2.58-.27-5.84-.22-8.8a1.66,1.66,0,0,1,.77-1.1c2.07-1.23,12.42.37,14,2.33,1,1.25,2.58,2.53,1.58,4.58s-2,4.14-4.88,4C214.75,328.54,213.26,328.62,211.77,328.62Z" transform="translate(-0.75 0.56)"/><path class="cls-1" d="M754.18,322.93c-1.87-5.43,1.93-5.45,6.44-5.33,8,.22,10.67,1.62,10.55,6.3-.12,4.86-3.45,6.22-11.83,6.87C752.74,331.28,754.28,327.25,754.18,322.93Z" transform="translate(-0.75 0.56)"/><path class="cls-5" d="M234.63,323c-1.73-5.13,1.55-5.64,6.28-5.45,7.44.29,11.41,2.15,11.36,6.36,0,3.54-3.47,7.07-11.47,6.72C234.64,330.39,234.63,330.61,234.63,323Z" transform="translate(-0.75 0.56)"/><path class="cls-5" d="M465.43,331.28c0-3.63.05-7.27,0-10.9,0-1.66.07-2.89,2.3-2.74,5.14.35,11-.37,14.27,4.41,3.8,5.55,3.72,11.88.52,17.95-1.88,3.55-12.14,7-16,5.54-1.65-.63-1.06-1.86-1.08-2.87C465.39,338.88,465.43,335.08,465.43,331.28Z" transform="translate(-0.75 0.56)"/><path class="cls-5" d="M399.68,345.58c-3.41.67-4.38-.64-4.26-3.95.25-6.95.15-13.92,0-20.87,0-2.25.42-3.17,3-3.16,15.11.07,18.15,9.71,14.16,21.32C410.48,345,404.6,344.67,399.68,345.58Z" transform="translate(-0.75 0.56)"/><path class="cls-5" d="M572.57,334.29c-10.67.84-10.65.85-7.28-8.46.58-1.61.94-3.29,1.51-5.33C569.67,324.83,570.49,329.56,572.57,334.29Z" transform="translate(-0.75 0.56)"/><path class="cls-5" d="M834.88,334.49H824.06c1.86-4.93,3.63-9.6,5.5-14.58C831.34,324.79,833,329.43,834.88,334.49Z" transform="translate(-0.75 0.56)"/><path class="cls-5" d="M704.71,330.61c-1.84-.4-5.51,1.11-6-.75-1-3.51-.34-7.49-.36-11.27,0-.13.13-.37.23-.39a23.26,23.26,0,0,1,11,.16c3,.8,5.44,1.71,5.7,5.34.3,4.13-2,6.79-6.19,6.91C707.73,330.64,706.41,330.61,704.71,330.61Z" transform="translate(-0.75 0.56)"/><rect class="cls-5" width="985.36" height="349"/><polygon class="cls-5" points="706.85 107.22 693.15 219.55 700 238.73 709.59 244.21 719.18 244.21 738.36 223.66 760.27 172.97 778.08 118.18 780.82 62.01 775.34 11.33 687.67 27.77 606.85 48.31 575.34 62.01 563.01 68.86 550.68 78.45 549.32 85.3 564.38 90.78 600 85.3 642.47 74.34 669.86 67.49 690.41 70.23 702.74 78.45 710.96 90.78 706.85 107.22"/></svg>