<svg width="48" height="45" viewBox="0 0 48 45" fill="none" xmlns="http://www.w3.org/2000/svg">
<path d="M34.6114 6.18911L38.9864 5.01681C39.5198 4.87389 40.0682 5.19046 40.2112 5.72392L46.9606 30.9133C47.1701 31.695 46.3883 32.461 45.5889 32.335C43.87 32.0641 41.0832 31.9171 37.7268 32.8165C32.0448 34.339 28.3984 38.9121 28.3984 38.9121C28.3984 38.9121 22.9538 36.7749 17.2719 38.2973C13.9155 39.1967 11.5755 40.7173 10.2224 41.8114C9.59306 42.3203 8.53305 42.0477 8.32361 41.2661L1.57413 16.0767C1.43119 15.5432 1.74777 14.9949 2.28123 14.8519L6.65632 13.6796" stroke="#252422" stroke-width="2" stroke-linejoin="round"/>
<path d="M21.1044 11.6906C18.2544 9.55515 14.2535 7.72808 6.08104 9.70515C5.54424 9.83503 5.22539 10.3847 5.36833 10.9182C6.4287 14.8756 10.4431 29.8576 11.6304 34.2885C11.7733 34.8219 12.3205 35.1243 12.8584 34.9989C21.0489 33.0887 25.2896 35.8107 28.1396 37.9462M21.1044 11.6906C22.5049 8.41625 25.0561 4.83353 33.1223 2.45946C33.6522 2.30352 34.2006 2.61044 34.3435 3.1439C35.5288 7.56757 39.4225 22.0988 40.6078 26.5226C40.7507 27.056 40.4285 27.5928 39.9 27.7531C31.8517 30.1941 29.54 34.6718 28.1396 37.9462M21.1044 11.6906L28.1396 37.9462" stroke="url(#paint0_linear_1_79)" stroke-width="2" stroke-linejoin="round"/>
<defs>
<linearGradient id="paint0_linear_1_79" x1="19.6016" y1="6.08201" x2="28.1396" y2="37.9462" gradientUnits="userSpaceOnUse">
<stop stop-color="#84A59D"/>
<stop offset="1" stop-color="#F28482"/>
</linearGradient>
</defs>
</svg>
